<svg width="26" height="20" viewBox="0 0 26 20" fill="none" xmlns="http://www.w3.org/2000/svg">
<g clip-path="url(#clip0_7511_4309)">
<path d="M1.39107 3.67809H6.93254L9.08521 0.46912L9.08382 0.467721C9.1613 0.35304 9.28788 0.291504 9.41654 0.291504H16.0848C16.2356 0.291504 16.3664 0.376116 16.4342 0.500587L18.5668 3.67809H24.1082C24.4915 3.67809 24.8394 3.83613 25.0912 4.09067C25.343 4.3452 25.4993 4.69694 25.4993 5.08433V17.8846C25.4993 18.272 25.343 18.6237 25.0912 18.8782C24.8394 19.1328 24.4915 19.2908 24.1082 19.2908H1.39107C1.00785 19.2908 0.659912 19.1328 0.408122 18.8782C0.156331 18.6237 0 18.272 0 17.8846V5.08433C0 4.69694 0.156331 4.3452 0.408122 4.09067C0.659912 3.83613 1.00785 3.67809 1.39107 3.67809ZM7.14144 4.48366H1.39107C1.22782 4.48366 1.0791 4.55149 0.971191 4.66057C0.863281 4.76966 0.796183 4.92001 0.796183 5.08503V17.8853C0.796183 18.0503 0.863281 18.2006 0.971191 18.3097C1.0791 18.4188 1.22782 18.4866 1.39107 18.4866H24.1082C24.2715 18.4866 24.4202 18.4188 24.5281 18.3097C24.636 18.2006 24.7031 18.0503 24.7031 17.8853V5.08433C24.7031 4.91931 24.636 4.76896 24.5281 4.65987C24.4202 4.55079 24.2715 4.48296 24.1082 4.48296H18.3606C18.232 4.48296 18.1061 4.42142 18.0286 4.30604L18.3586 4.08018L18.03 4.30534L15.8766 1.09707H9.62337L7.49076 4.27457C7.42297 4.39904 7.29224 4.48366 7.14144 4.48366Z" fill="#2B333B"/>
<path d="M12.75 5.9248C14.2683 5.9248 15.6435 6.54716 16.6389 7.55342C17.6343 8.55967 18.2499 9.94913 18.2499 11.4847C18.2499 13.0203 17.6343 14.4098 16.6389 15.4161C15.6435 16.4223 14.269 17.0447 12.75 17.0447C11.2309 17.0447 9.85645 16.4223 8.86104 15.4161C7.86564 14.4098 7.25 13.0203 7.25 11.4847C7.25 9.94913 7.86564 8.55967 8.86104 7.55342C9.85645 6.54716 11.2309 5.9248 12.75 5.9248ZM16.0751 8.12263C15.2243 7.26252 14.0483 6.73037 12.75 6.73037C11.4516 6.73037 10.2756 7.26252 9.4248 8.12263C8.57397 8.98273 8.04757 10.1715 8.04757 11.484C8.04757 12.7966 8.57397 13.9853 9.4248 14.8455C10.2756 15.7056 11.4516 16.2377 12.75 16.2377C14.0483 16.2377 15.2243 15.7056 16.0751 14.8455C16.9259 13.9853 17.4524 12.7966 17.4524 11.484C17.4524 10.1715 16.9259 8.98273 16.0751 8.12263Z" fill="#2B333B"/>
<path d="M9.31055 11.4846C9.31055 11.707 9.48901 11.8874 9.70898 11.8874C9.92895 11.8874 10.1074 11.707 10.1074 11.4846C10.1074 10.7469 10.4035 10.0791 10.8815 9.59587C11.3595 9.11267 12.0201 8.81338 12.7498 8.81338C12.9698 8.81338 13.1483 8.63296 13.1483 8.4106C13.1483 8.18823 12.9698 8.00781 12.7498 8.00781C11.8001 8.00781 10.9403 8.39731 10.3177 9.02596C9.69515 9.6553 9.31055 10.5245 9.31055 11.4846Z" fill="#2B333B"/>
<path d="M24.9132 7.46338H16.4277V8.30251H24.9132V7.46338Z" fill="#2B333B"/>
<path d="M9.04097 7.46338H0.320312V8.30251H9.04097V7.46338Z" fill="#2B333B"/>
</g>
<defs>
<clipPath id="clip0_7511_4309">
<rect y="0.291504" width="25.5" height="19" fill="white"/>
</clipPath>
</defs>
</svg>
