<svg width="24" height="24" viewBox="0 0 24 24" fill="none" xmlns="http://www.w3.org/2000/svg">
<path d="M16.2308 10.3402C12.9655 10.3402 10.3077 12.9972 10.3077 16.2633C10.3077 19.5109 12.9655 22.1534 16.2308 22.1534C19.4961 22.1534 22.1539 19.4965 22.1539 16.2303C22.1539 12.9828 19.4961 10.3402 16.2308 10.3402ZM16.2308 20.4611C13.898 20.4611 12 18.5776 12 16.2633C12 13.9305 13.898 12.0325 16.2308 12.0325C18.5637 12.0325 20.4616 13.9161 20.4616 16.2303C20.4616 18.5632 18.5637 20.4611 16.2308 20.4611ZM17.6752 16.4782C18.006 16.8091 18.006 17.3439 17.6752 17.6747C17.5102 17.8397 17.2936 17.9226 17.077 17.9226C16.8603 17.9226 16.6437 17.8397 16.4787 17.6747L15.6326 16.8286C15.4735 16.6695 15.3847 16.4546 15.3847 16.2303V14.538C15.3847 14.0709 15.7629 13.6919 16.2308 13.6919C16.6987 13.6919 17.077 14.0709 17.077 14.538V15.88L17.6752 16.4782ZM22.1539 7.76878V9.46109C22.1539 9.92817 21.7757 10.3072 21.3077 10.3072C20.8398 10.3072 20.4616 9.92817 20.4616 9.46109V7.76878C20.4616 6.36924 19.3227 5.23032 17.9231 5.23032H6.07696C4.67742 5.23032 3.5385 6.36924 3.5385 7.76878V8.61493H11.1539C11.621 8.61493 12 8.99401 12 9.46109C12 9.92817 11.621 10.3072 11.1539 10.3072H3.5385V17.9226C3.5385 19.3222 4.67742 20.4611 6.07696 20.4611H9.46158C9.92865 20.4611 10.3077 20.8402 10.3077 21.3072C10.3077 21.7743 9.92865 22.1534 9.46158 22.1534H6.07696C3.74411 22.1534 1.84619 20.2555 1.84619 17.9226V7.76878C1.84619 5.43593 3.74411 3.53801 6.07696 3.53801H6.92311V2.69186C6.92311 2.22478 7.30219 1.8457 7.76927 1.8457C8.23635 1.8457 8.61542 2.22478 8.61542 2.69186V3.53801H15.3847V2.69186C15.3847 2.22478 15.7629 1.8457 16.2308 1.8457C16.6987 1.8457 17.077 2.22478 17.077 2.69186V3.53801H17.9231C20.256 3.53801 22.1539 5.43593 22.1539 7.76878Z" fill="#9FACB9"/>
</svg>
