<svg width="25" height="25" viewBox="0 0 25 25" fill="none" xmlns="http://www.w3.org/2000/svg">
<g clip-path="url(#clip0_2719_2906)">
<path d="M23.5 19.5C23.5 20.0304 23.2893 20.5391 22.9142 20.9142C22.5391 21.2893 22.0304 21.5 21.5 21.5H3.5C2.96957 21.5 2.46086 21.2893 2.08579 20.9142C1.71071 20.5391 1.5 20.0304 1.5 19.5V8.5C1.5 7.96957 1.71071 7.46086 2.08579 7.08579C2.46086 6.71071 2.96957 6.5 3.5 6.5H7.5L9.5 3.5H15.5L17.5 6.5H21.5C22.0304 6.5 22.5391 6.71071 22.9142 7.08579C23.2893 7.46086 23.5 7.96957 23.5 8.5V19.5Z" stroke="#2B333B" stroke-width="2" stroke-linecap="round" stroke-linejoin="round"/>
<path d="M12.5 17.5C14.7091 17.5 16.5 15.7091 16.5 13.5C16.5 11.2909 14.7091 9.5 12.5 9.5C10.2909 9.5 8.5 11.2909 8.5 13.5C8.5 15.7091 10.2909 17.5 12.5 17.5Z" stroke="#2B333B" stroke-width="2" stroke-linecap="round" stroke-linejoin="round"/>
</g>
<defs>
<clipPath id="clip0_2719_2906">
<rect width="24" height="24" fill="white" transform="translate(0.5 0.5)"/>
</clipPath>
</defs>
</svg>
