<svg width="18" height="18" viewBox="0 0 18 18" fill="none" xmlns="http://www.w3.org/2000/svg">
<g clip-path="url(#clip0_8684_14548)">
<path d="M14.5578 11.25C14.458 11.4762 14.4282 11.7271 14.4723 11.9704C14.5164 12.2137 14.6324 12.4382 14.8053 12.615L14.8503 12.66C14.9898 12.7993 15.1004 12.9647 15.1759 13.1468C15.2514 13.3289 15.2902 13.5241 15.2902 13.7213C15.2902 13.9184 15.2514 14.1136 15.1759 14.2957C15.1004 14.4778 14.9898 14.6432 14.8503 14.7825C14.711 14.922 14.5456 15.0326 14.3635 15.1081C14.1814 15.1836 13.9862 15.2224 13.7891 15.2224C13.5919 15.2224 13.3967 15.1836 13.2147 15.1081C13.0326 15.0326 12.8671 14.922 12.7278 14.7825L12.6828 14.7375C12.5061 14.5646 12.2816 14.4486 12.0383 14.4045C11.795 14.3604 11.544 14.3902 11.3178 14.49C11.096 14.5851 10.9068 14.7429 10.7735 14.9442C10.6403 15.1454 10.5688 15.3812 10.5678 15.6225V15.75C10.5678 16.1478 10.4098 16.5294 10.1285 16.8107C9.84717 17.092 9.46564 17.25 9.06781 17.25C8.66999 17.25 8.28846 17.092 8.00715 16.8107C7.72585 16.5294 7.56781 16.1478 7.56781 15.75V15.6825C7.56201 15.4343 7.48165 15.1935 7.3372 14.9915C7.19274 14.7896 6.99086 14.6357 6.75781 14.55C6.5316 14.4502 6.28067 14.4204 6.03737 14.4645C5.79407 14.5086 5.56957 14.6246 5.39281 14.7975L5.34781 14.8425C5.2085 14.982 5.04307 15.0926 4.86097 15.1681C4.67888 15.2436 4.48369 15.2824 4.28656 15.2824C4.08944 15.2824 3.89425 15.2436 3.71215 15.1681C3.53005 15.0926 3.36462 14.982 3.22531 14.8425C3.08585 14.7032 2.97521 14.5378 2.89972 14.3557C2.82424 14.1736 2.78538 13.9784 2.78538 13.7812C2.78538 13.5841 2.82424 13.3889 2.89972 13.2068C2.97521 13.0247 3.08585 12.8593 3.22531 12.72L3.27031 12.675C3.44322 12.4982 3.5592 12.2737 3.60332 12.0304C3.64743 11.7871 3.61765 11.5362 3.51781 11.31C3.42274 11.0882 3.26488 10.899 3.06366 10.7657C2.86244 10.6325 2.62665 10.561 2.38531 10.56H2.25781C1.85999 10.56 1.47846 10.402 1.19715 10.1207C0.915848 9.83936 0.757813 9.45782 0.757812 9.06C0.757812 8.66218 0.915848 8.28064 1.19715 7.99934C1.47846 7.71804 1.85999 7.56 2.25781 7.56H2.32531C2.57356 7.55419 2.81432 7.47384 3.01629 7.32938C3.21826 7.18493 3.3721 6.98305 3.45781 6.75C3.55765 6.52379 3.58743 6.27286 3.54332 6.02956C3.4992 5.78626 3.38322 5.56176 3.21031 5.385L3.16531 5.34C3.02585 5.20069 2.91521 5.03526 2.83972 4.85316C2.76424 4.67106 2.72538 4.47587 2.72538 4.27875C2.72538 4.08163 2.76424 3.88644 2.83972 3.70434C2.91521 3.52224 3.02585 3.35681 3.16531 3.2175C3.30462 3.07804 3.47005 2.9674 3.65215 2.89191C3.83425 2.81642 4.02944 2.77757 4.22656 2.77757C4.42369 2.77757 4.61888 2.81642 4.80097 2.89191C4.98307 2.9674 5.1485 3.07804 5.28781 3.2175L5.33281 3.2625C5.50957 3.4354 5.73407 3.55139 5.97737 3.5955C6.22067 3.63962 6.4716 3.60984 6.69781 3.51H6.75781C6.97964 3.41493 7.16883 3.25707 7.30208 3.05585C7.43534 2.85463 7.50685 2.61884 7.50781 2.3775V2.25C7.50781 1.85218 7.66585 1.47064 7.94715 1.18934C8.22846 0.908035 8.60999 0.75 9.00781 0.75C9.40564 0.75 9.78717 0.908035 10.0685 1.18934C10.3498 1.47064 10.5078 1.85218 10.5078 2.25V2.3175C10.5088 2.55884 10.5803 2.79463 10.7135 2.99585C10.8468 3.19707 11.036 3.35493 11.2578 3.45C11.484 3.54984 11.735 3.57962 11.9783 3.5355C12.2216 3.49139 12.4461 3.3754 12.6228 3.2025L12.6678 3.1575C12.8071 3.01804 12.9726 2.9074 13.1547 2.83191C13.3367 2.75642 13.5319 2.71757 13.7291 2.71757C13.9262 2.71757 14.1214 2.75642 14.3035 2.83191C14.4856 2.9074 14.651 3.01804 14.7903 3.1575C14.9298 3.29681 15.0404 3.46224 15.1159 3.64434C15.1914 3.82644 15.2302 4.02163 15.2302 4.21875C15.2302 4.41587 15.1914 4.61106 15.1159 4.79316C15.0404 4.97526 14.9298 5.14069 14.7903 5.28L14.7453 5.325C14.5724 5.50176 14.4564 5.72626 14.4123 5.96956C14.3682 6.21285 14.398 6.46379 14.4978 6.69V6.75C14.5929 6.97183 14.7507 7.16101 14.952 7.29427C15.1532 7.42753 15.389 7.49904 15.6303 7.5H15.7578C16.1556 7.5 16.5372 7.65804 16.8185 7.93934C17.0998 8.22064 17.2578 8.60218 17.2578 9C17.2578 9.39782 17.0998 9.77936 16.8185 10.0607C16.5372 10.342 16.1556 10.5 15.7578 10.5H15.6903C15.449 10.501 15.2132 10.5725 15.012 10.7057C14.8107 10.839 14.6529 11.0282 14.5578 11.25Z" stroke="black" stroke-width="1.5" stroke-linecap="round" stroke-linejoin="round"/>
<path d="M11.5078 7.28125L8.07031 10.7188L6.50781 9.15625" stroke="black" stroke-width="1.5" stroke-linecap="round" stroke-linejoin="round"/>
</g>
<defs>
<clipPath id="clip0_8684_14548">
<rect width="18" height="18" fill="white" transform="translate(0.0078125)"/>
</clipPath>
</defs>
</svg>
