<svg width="400" height="400" viewBox="0 0 400 400" fill="none" xmlns="http://www.w3.org/2000/svg">
<mask id="mask0_1203_3283" style="mask-type:luminance" maskUnits="userSpaceOnUse" x="0" y="0" width="400" height="400">
<path d="M400 0H0V400H400V0Z" fill="white"/>
</mask>
<g mask="url(#mask0_1203_3283)">
<g opacity="0.999999">
<path d="M189.613 320.055C288.475 330.06 339.426 305.741 342.468 247.097C347.029 159.13 270.192 168.633 247.816 145.449C225.439 122.266 250.506 155.213 207.411 107.17C178.68 75.1416 140.396 74.9771 92.5588 106.678C53.9731 138.082 49.7999 179.267 80.0379 230.232C110.276 281.195 146.801 311.137 189.613 320.055Z" fill="#D6DDEC"/>
</g>
<path d="M67.9927 264.092L65.0356 267.049L60.1958 262.206L55.3459 267.056L52.3889 264.099L57.2363 259.249L52.3964 254.409L55.3534 251.45L60.1933 256.292L65.0431 251.445L68.0001 254.402L63.1528 259.252L67.9927 264.092Z" fill="#E6E6E6"/>
<path d="M322.012 153.26C317.231 153.26 313.359 149.382 313.359 144.602C313.359 139.822 317.231 135.944 322.012 135.944C326.794 135.944 330.665 139.822 330.665 144.602C330.665 149.382 326.794 153.26 322.012 153.26ZM322.012 148.325C324.059 148.325 325.721 146.66 325.721 144.602C325.721 142.543 324.059 140.878 322.012 140.878C319.965 140.878 318.303 142.543 318.303 144.602C318.303 146.66 319.965 148.325 322.012 148.325Z" fill="#E6E6E6"/>
<mask id="mask1_1203_3283" style="mask-type:luminance" maskUnits="userSpaceOnUse" x="142" y="100" width="157" height="45">
<path d="M298.044 100.061H142.457L142.368 144.549H297.953L298.044 100.061Z" fill="white"/>
</mask>
<g mask="url(#mask1_1203_3283)">
<path d="M144.684 102.317C164.622 102.317 167.114 114.102 167.114 125.865V138.698C167.114 140.732 168.66 142.384 170.563 142.384L288.04 141.363C289.944 141.363 291.489 139.712 291.489 137.678V123.842C291.489 111.222 281.916 100.989 270.11 100.989C269.31 100.989 143.849 102.317 144.684 102.317Z" fill="#E6E6E6"/>
<path d="M144.68 104.474C144.68 106.398 146.244 107.96 148.169 107.96C270.134 107.96 270.157 107.958 270.179 107.96C278.172 107.973 284.648 114.505 284.66 122.569V139.102H288.109C290.012 139.102 291.557 137.545 291.557 135.624V122.569C291.609 110.645 282.068 100.938 270.249 100.887H270.111H268.823C268.507 100.905 268.199 100.957 267.886 100.99H148.164C146.24 100.99 144.68 102.55 144.68 104.474Z" fill="#E6E6E6"/>
</g>
<mask id="mask2_1203_3283" style="mask-type:luminance" maskUnits="userSpaceOnUse" x="94" y="97" width="193" height="210">
<path d="M286.108 97.8193H94.7041V306.231H286.108V97.8193Z" fill="white"/>
</mask>
<g mask="url(#mask2_1203_3283)">
<path d="M270.111 107.53V100.988H145.89C129.613 101.013 116.425 114.313 116.4 130.724V301.474C116.4 303.393 117.945 304.951 119.848 304.951H226.207C242.462 304.9 255.618 291.605 255.63 275.215V122.543V122.38C255.73 114.384 262.182 107.553 270.111 107.542C270.143 107.542 270.173 107.532 270.204 107.53H270.111Z" fill="white"/>
<path d="M145.823 100.988C129.545 101.014 116.355 114.314 116.33 130.725V230.69L190.6 100.896L145.823 100.988Z" fill="#F0F0F0"/>
<path d="M116.398 171.044V132.928C116.424 116.516 129.613 103.218 145.891 103.191H270.11M107.571 300.223C114.989 300.223 116.331 292.342 116.331 287.361C116.331 246.629 116.398 217.837 116.398 207.508M117.047 182.689V187.269" stroke="#E6E6E6" stroke-width="4.48598" stroke-miterlimit="10" stroke-linecap="round"/>
<path d="M270.111 100.885H268.823C257.549 101.571 248.747 110.986 248.732 122.381V122.707V275.129C248.711 285.515 241.754 294.582 231.793 297.206C230.704 297.489 229.588 297.629 228.474 297.64V297.644H228.388H228.3H99.3555C104.532 302.213 111.303 304.991 118.721 304.997H118.767H155.945H226.208C226.965 304.997 228.137 304.997 228.897 304.881C230.236 304.758 231.565 304.533 232.872 304.209C246.225 301.073 255.682 289.075 255.699 275.245V122.497V122.335C255.798 114.84 261.493 108.636 268.891 107.958C269.299 107.935 270.082 107.938 270.488 107.958L270.111 100.885Z" fill="#E6E6E6"/>
</g>
<mask id="mask3_1203_3283" style="mask-type:luminance" maskUnits="userSpaceOnUse" x="87" y="266" width="142" height="40">
<path d="M228.581 266.41H87.228V305.608H228.581V266.41Z" fill="white"/>
</mask>
<g mask="url(#mask3_1203_3283)">
<path d="M270.109 100.885H268.822C257.547 101.573 248.75 110.986 248.733 122.381V122.707V275.129C248.712 285.515 241.755 294.583 231.794 297.206C229.532 297.796 227.157 297.796 224.897 297.206C214.904 294.546 207.95 285.416 207.977 274.991V270.353C207.991 268.432 206.458 266.862 204.554 266.851H182.698H165.127H138.038H109.675H92.7234C90.8206 266.851 89.2754 268.41 89.2754 270.33V275.246C89.2604 291.664 102.447 304.983 118.722 304.997H118.766H155.943H226.205C226.964 304.997 228.136 304.997 228.895 304.881C230.236 304.758 231.566 304.535 232.873 304.209C246.226 301.074 255.682 289.077 255.698 275.246V122.498V122.335C255.796 114.841 261.492 108.634 268.892 107.959C269.32 107.935 269.749 107.935 270.179 107.959C278.171 107.971 284.647 114.505 284.661 122.567V139.102H288.109C290.013 139.102 291.558 137.544 291.558 135.624V122.567C291.608 110.643 282.068 100.937 270.249 100.885H270.109Z" fill="#E6E6E6"/>
</g>
<mask id="mask4_1203_3283" style="mask-type:luminance" maskUnits="userSpaceOnUse" x="0" y="0" width="400" height="400">
<path d="M0 0H400V400H0V0Z" fill="white"/>
</mask>
<g mask="url(#mask4_1203_3283)">
<mask id="mask5_1203_3283" style="mask-type:luminance" maskUnits="userSpaceOnUse" x="119" y="105" width="139" height="194">
<path d="M257.009 105.607C248.91 105.607 144.237 105.607 144.237 105.607L125.857 118.692L119.003 158.255V266.978C119.003 266.978 202.492 266.978 204.984 266.978C207.477 266.978 207.788 269.159 207.788 270.716C207.788 272.274 209.346 298.131 227.726 298.131C246.106 298.131 248.598 281.308 248.598 271.963C248.598 262.617 248.598 123.364 248.598 120.249C248.598 117.134 252.337 107.788 257.009 105.607Z" fill="white"/>
</mask>
<g mask="url(#mask5_1203_3283)">
<path d="M276.02 246.915C294.324 230.143 295.592 201.739 278.854 183.473C262.116 165.206 233.71 163.995 215.406 180.767C197.102 197.54 195.831 225.944 212.57 244.211C229.308 262.477 257.716 263.688 276.02 246.915Z" fill="#D6DDEC"/>
<path d="M276.02 246.915C294.324 230.143 295.592 201.739 278.854 183.473C262.116 165.206 233.71 163.995 215.406 180.767C197.102 197.54 195.831 225.944 212.57 244.211C229.308 262.477 257.716 263.688 276.02 246.915Z" stroke="#D6DDEC" stroke-width="4.48598" stroke-miterlimit="10"/>
</g>
</g>
<path d="M144.181 236.522H177.894" stroke="#2B333B" stroke-width="4.48598" stroke-miterlimit="10" stroke-linecap="round"/>
<path d="M144.181 205.12H177.894" stroke="#2B333B" stroke-width="4.48598" stroke-miterlimit="10" stroke-linecap="round"/>
<path d="M144.179 173.718H220.597" stroke="#2B333B" stroke-width="4.48598" stroke-miterlimit="10" stroke-linecap="round"/>
<path d="M144.179 140.073H229.427" stroke="#2B333B" stroke-width="4.48598" stroke-miterlimit="10" stroke-linecap="round"/>
<path d="M278.294 233.194C280.643 230.852 284.444 230.856 286.79 233.198L316.433 262.792C318.771 265.127 318.774 268.917 316.439 271.257L316.429 271.267C314.08 273.607 310.279 273.606 307.932 271.262L278.289 241.67C275.95 239.333 275.948 235.544 278.283 233.205L278.294 233.194Z" fill="#2B333B"/>
<path d="M284.618 239.315C302.922 222.543 304.19 194.139 287.452 175.872C270.714 157.605 242.308 156.394 224.004 173.167C205.701 189.939 204.43 218.344 221.168 236.611C237.906 254.877 266.314 256.087 284.618 239.315Z" fill="white"/>
<path d="M284.618 239.315C302.922 222.543 304.19 194.139 287.452 175.872C270.714 157.605 242.308 156.394 224.004 173.167C205.701 189.939 204.43 218.344 221.168 236.611C237.906 254.877 266.314 256.087 284.618 239.315Z" stroke="#2B333B" stroke-width="4.48598" stroke-miterlimit="10"/>
<path d="M270.888 216.324L266.637 220.573L255.693 209.63L244.832 220.49L240.557 216.216L251.418 205.353L240.474 194.409L244.725 190.158L255.669 201.103L266.53 190.242L270.805 194.517L259.944 205.379L270.888 216.324Z" fill="#2B333B"/>
</g>
</svg>
