<svg width="33" height="33" viewBox="0 0 33 33" fill="none" xmlns="http://www.w3.org/2000/svg">
<path d="M4.25415 8.05469H6.92082H28.2542" stroke="#93A0BB" stroke-width="2.66667" stroke-linecap="round" stroke-linejoin="round"/>
<path d="M25.5874 8.05599V26.7227C25.5874 27.4299 25.3065 28.1082 24.8064 28.6083C24.3063 29.1084 23.628 29.3893 22.9208 29.3893H9.58744C8.8802 29.3893 8.20192 29.1084 7.70182 28.6083C7.20173 28.1082 6.92078 27.4299 6.92078 26.7227V8.05599M10.9208 8.05599V5.38932C10.9208 4.68208 11.2017 4.0038 11.7018 3.5037C12.2019 3.00361 12.8802 2.72266 13.5874 2.72266H18.9208C19.628 2.72266 20.3063 3.00361 20.8064 3.5037C21.3065 4.0038 21.5874 4.68208 21.5874 5.38932V8.05599" stroke="#93A0BB" stroke-width="2.66667" stroke-linecap="round" stroke-linejoin="round"/>
</svg>
