<svg width="22" height="25" viewBox="0 0 22 25" fill="none" xmlns="http://www.w3.org/2000/svg">
<path d="M7 6.5C7.55228 6.5 8 6.05228 8 5.5C8 4.94772 7.55228 4.5 7 4.5C6.44772 4.5 6 4.94772 6 5.5C6 6.05228 6.44772 6.5 7 6.5Z" stroke="#2B333B" stroke-width="2" stroke-linecap="round" stroke-linejoin="round"/>
<path d="M7 13.5C7.55228 13.5 8 13.0523 8 12.5C8 11.9477 7.55228 11.5 7 11.5C6.44772 11.5 6 11.9477 6 12.5C6 13.0523 6.44772 13.5 7 13.5Z" stroke="#2B333B" stroke-width="2" stroke-linecap="round" stroke-linejoin="round"/>
<path d="M7 20.5C7.55228 20.5 8 20.0523 8 19.5C8 18.9477 7.55228 18.5 7 18.5C6.44772 18.5 6 18.9477 6 19.5C6 20.0523 6.44772 20.5 7 20.5Z" stroke="#2B333B" stroke-width="2" stroke-linecap="round" stroke-linejoin="round"/>
<path d="M15 6.5C15.5523 6.5 16 6.05228 16 5.5C16 4.94772 15.5523 4.5 15 4.5C14.4477 4.5 14 4.94772 14 5.5C14 6.05228 14.4477 6.5 15 6.5Z" stroke="#2B333B" stroke-width="2" stroke-linecap="round" stroke-linejoin="round"/>
<path d="M15 13.5C15.5523 13.5 16 13.0523 16 12.5C16 11.9477 15.5523 11.5 15 11.5C14.4477 11.5 14 11.9477 14 12.5C14 13.0523 14.4477 13.5 15 13.5Z" stroke="#2B333B" stroke-width="2" stroke-linecap="round" stroke-linejoin="round"/>
<path d="M15 20.5C15.5523 20.5 16 20.0523 16 19.5C16 18.9477 15.5523 18.5 15 18.5C14.4477 18.5 14 18.9477 14 19.5C14 20.0523 14.4477 20.5 15 20.5Z" stroke="#2B333B" stroke-width="2" stroke-linecap="round" stroke-linejoin="round"/>
</svg>
