<svg width="37" height="36" viewBox="0 0 37 36" fill="none" xmlns="http://www.w3.org/2000/svg">
<rect x="0.828125" y="0.374023" width="35.6284" height="35.6284" rx="4" fill="#2B333B"/>
<g clip-path="url(#clip0_7519_10260)">
<path d="M20.7016 26.0637L28.3281 18.411C29.3834 17.3522 29.3834 15.6293 28.3281 14.5706L23.135 9.35996C22.1112 8.33184 20.3236 8.33184 19.2999 9.35996L8.91448 19.7812C7.85923 20.84 7.85923 22.5628 8.91448 23.6216L13.0917 27.8137H29.1427V26.0637H20.7016ZM20.5389 10.5963C20.9029 10.2323 21.532 10.2323 21.896 10.5963L27.0891 15.807C27.4654 16.1841 27.4654 16.7992 27.0891 17.1763L22.2731 22.009L15.7194 15.4333L20.5397 10.5972L20.5389 10.5963ZM13.818 26.0637L10.1535 22.3861C9.77723 22.009 9.77723 21.3938 10.1535 21.0167L14.4839 16.6715L21.0376 23.2471L18.2315 26.0628H13.8189L13.818 26.0637Z" fill="white"/>
</g>
<defs>
<clipPath id="clip0_7519_10260">
<rect width="21" height="21" fill="white" transform="translate(8.14258 7.68848)"/>
</clipPath>
</defs>
</svg>
