<svg width="24" height="24" viewBox="0 0 24 24" fill="none" xmlns="http://www.w3.org/2000/svg">
<path d="M10.4857 21.0744H4.92073C3.92773 21.0744 3.12073 20.2674 3.12073 19.2752V6.38194C3.12073 5.38969 3.92848 4.58195 4.92073 4.58195H6.27748C6.25948 4.91945 6.34048 5.25845 6.53548 5.54645C6.82798 5.97845 7.31398 6.23569 7.83523 6.23569H13.3597C13.881 6.23569 14.367 5.97769 14.6595 5.54645C14.8545 5.25845 14.9355 4.91945 14.9175 4.58195H16.2765C17.2695 4.58195 18.0765 5.38969 18.0765 6.38194V10.8219C18.0765 11.1947 18.3787 11.4969 18.7515 11.4969C19.1242 11.4969 19.4265 11.1947 19.4265 10.8219V6.38194C19.4265 4.64494 18.0135 3.23195 16.2765 3.23195H14.4787L14.2117 2.56295C13.9717 1.96295 13.3995 1.5752 12.7537 1.5752H8.44198C7.79548 1.5752 7.22323 1.9637 6.98398 2.5637L6.71623 3.2327H4.92148C3.18448 3.2327 1.77148 4.6457 1.77148 6.3827V19.2752C1.77148 21.0114 3.18448 22.4252 4.92148 22.4252H10.4865C10.8592 22.4252 11.1615 22.1229 11.1615 21.7502C11.1615 21.3774 10.8592 21.0744 10.4857 21.0744ZM7.63048 4.58345L8.23723 3.06395C8.27098 2.97995 8.35123 2.9252 8.44123 2.9252H12.753C12.8437 2.9252 12.924 2.97995 12.957 3.06395L13.5637 4.58345C13.6012 4.67795 13.566 4.75295 13.5412 4.78895C13.5172 4.82495 13.461 4.88569 13.359 4.88569H7.83448C7.73248 4.88569 7.67698 4.82495 7.65223 4.78895C7.62823 4.75295 7.59298 4.67795 7.63048 4.58345Z" fill="#B2B7C7"/>
<path d="M15.4865 11.6105C15.4865 11.2378 15.1842 10.9355 14.8115 10.9355H9.7707C9.39795 10.9355 9.0957 11.2378 9.0957 11.6105C9.0957 11.9833 9.39795 12.2855 9.7707 12.2855H14.8115C15.185 12.2855 15.4865 11.984 15.4865 11.6105Z" fill="#B2B7C7"/>
<path d="M7.06528 10.9355H6.38203C6.00928 10.9355 5.70703 11.2378 5.70703 11.6105C5.70703 11.9833 6.00928 12.2855 6.38203 12.2855H7.06603C7.43878 12.2855 7.74103 11.9833 7.74103 11.6105C7.74103 11.2378 7.43803 10.9355 7.06528 10.9355Z" fill="#B2B7C7"/>
<path d="M9.77363 15.0293C9.40088 15.0293 9.09863 15.3315 9.09863 15.7043C9.09863 16.077 9.40088 16.3793 9.77363 16.3793H13.1111C13.4839 16.3793 13.7861 16.077 13.7861 15.7043C13.7861 15.3315 13.4839 15.0293 13.1111 15.0293H9.77363Z" fill="#B2B7C7"/>
<path d="M7.06528 15.0303H6.38203C6.00928 15.0303 5.70703 15.3325 5.70703 15.7053C5.70703 16.078 6.00928 16.3803 6.38203 16.3803H7.06603C7.43878 16.3803 7.74103 16.078 7.74103 15.7053C7.74103 15.3325 7.43803 15.0303 7.06528 15.0303Z" fill="#B2B7C7"/>
<path d="M21.5886 13.6031C20.7636 12.7781 19.3244 12.7781 18.4994 13.6031L13.4024 18.7001C13.2231 18.8794 13.1061 19.1066 13.0641 19.3564L12.7844 21.0086C12.7191 21.3964 12.8466 21.7924 13.1241 22.0699C13.3536 22.2979 13.6634 22.4239 13.9814 22.4239C14.0489 22.4239 14.1164 22.4179 14.1839 22.4074L15.8346 22.1284C16.0859 22.0864 16.3131 21.9694 16.4916 21.7901L21.5886 16.6931C22.4406 15.8404 22.4406 14.4544 21.5886 13.6031ZM15.5684 20.8031L14.1486 21.0431L14.3879 19.6234L17.9399 16.0714L19.1196 17.2511L15.5684 20.8031ZM20.6346 15.7369L20.0751 16.2964L18.8954 15.1166L19.4549 14.5571C19.7706 14.2406 20.3196 14.2414 20.6346 14.5564C20.9594 14.8826 20.9594 15.4121 20.6346 15.7369Z" fill="#B2B7C7"/>
</svg>
