<svg width="33" height="58" viewBox="0 0 33 58" fill="none" xmlns="http://www.w3.org/2000/svg">
<path d="M27.4 4.18652H0V57.9265H27.4V4.18652Z" fill="#4A4D4E"/>
<path d="M14.17 39.5365C14.17 44.1265 12.59 48.7965 9.21002 54.2065H5.65002C8.99002 48.9165 10.55 44.1365 10.54 39.1865C10.54 35.9265 9.87002 32.9665 9.22002 30.1065C8.58002 27.2665 7.97002 24.5965 7.97002 21.6565C7.97002 16.8965 9.67002 12.3565 13.33 7.37646C13.42 7.24646 13.54 7.26646 13.6 7.28646C13.69 7.31646 13.79 7.40646 13.79 7.52646C13.79 7.56646 13.78 7.60646 13.76 7.64646C11.48 12.0265 10.37 16.0465 10.37 19.9365C10.37 23.6065 11.34 26.7865 12.29 29.8565C13.22 32.8665 14.17 35.9865 14.17 39.5265" fill="white"/>
<path d="M5.94997 54.0365C9.18997 48.8265 10.71 44.0965 10.71 39.1865C10.71 35.9065 10.04 32.9365 9.38997 30.0765C8.74997 27.2465 8.13997 24.5865 8.13997 21.6665C8.13997 16.9465 9.82997 12.4365 13.47 7.48649C13.5 7.44649 13.52 7.44649 13.55 7.45649C13.58 7.46649 13.62 7.49649 13.62 7.52649C13.62 7.53649 13.62 7.55649 13.61 7.57649C11.32 11.9865 10.2 16.0265 10.2 19.9465C10.2 23.6465 11.18 26.8365 12.13 29.9165C13.05 32.9165 14 36.0265 14 39.5365C14 44.0665 12.45 48.6865 9.11997 54.0365H5.95997M5.33997 54.3865H9.30997C13.12 48.2965 14.34 43.5965 14.34 39.5465C14.34 32.3865 10.54 27.2265 10.54 19.9565C10.54 16.5065 11.39 12.5865 13.91 7.74649C13.95 7.67649 13.96 7.60649 13.96 7.53649C13.96 7.17649 13.45 6.93649 13.19 7.29649C9.02997 12.9665 7.79997 17.5265 7.79997 21.6765C7.79997 27.6765 10.37 32.8165 10.37 39.1965C10.37 43.4865 9.20997 48.3365 5.33997 54.3865Z" fill="#ED3437"/>
<path d="M21.3399 39.5365C21.3399 44.1265 19.7599 48.7965 16.3799 54.2065H12.8199C16.1599 48.9165 17.7199 44.1365 17.7199 39.1865C17.7199 35.9265 17.0499 32.9665 16.3999 30.1065C15.7599 27.2665 15.1499 24.5965 15.1499 21.6565C15.1499 16.8965 16.8499 12.3565 20.5099 7.37646C20.5999 7.24646 20.7199 7.26646 20.7799 7.28646C20.8699 7.31646 20.9699 7.40646 20.9699 7.52646C20.9699 7.56646 20.9699 7.60646 20.9399 7.64646C18.6599 12.0265 17.5499 16.0465 17.5499 19.9365C17.5499 23.6065 18.5199 26.7865 19.4699 29.8565C20.3999 32.8665 21.3499 35.9865 21.3499 39.5265" fill="white"/>
<path d="M13.13 54.0365C16.37 48.8265 17.89 44.0965 17.89 39.1865C17.89 35.9065 17.22 32.9365 16.57 30.0765C15.93 27.2465 15.32 24.5865 15.32 21.6665C15.32 16.9465 17.01 12.4365 20.65 7.48649C20.68 7.44649 20.7 7.44649 20.73 7.45649C20.76 7.46649 20.8 7.49649 20.8 7.52649C20.8 7.53649 20.8 7.55649 20.79 7.57649C18.5 11.9865 17.38 16.0265 17.38 19.9465C17.38 23.6465 18.36 26.8365 19.31 29.9165C20.23 32.9165 21.18 36.0265 21.18 39.5365C21.18 44.0665 19.63 48.6865 16.3 54.0365H13.14M12.51 54.3865H16.48C20.29 48.2965 21.51 43.5965 21.51 39.5465C21.51 32.3865 17.71 27.2265 17.71 19.9565C17.71 16.5065 18.56 12.5865 21.08 7.74649C21.12 7.67649 21.13 7.60649 21.13 7.53649C21.13 7.17649 20.62 6.93649 20.36 7.29649C16.2 12.9665 14.97 17.5265 14.97 21.6765C14.97 27.6765 17.54 32.8165 17.54 39.1965C17.54 43.4865 16.38 48.3365 12.51 54.3865Z" fill="#ED3437"/>
<path d="M24.66 7.73649C24.9 7.27649 24.25 6.86649 23.94 7.28649C10.29 25.8865 28.18 32.5565 17.55 51.9065H14.33C25.11 32.1065 7.07 27.7465 17.48 7.73649C17.72 7.27649 17.07 6.86649 16.76 7.28649C3.11 25.8865 21 32.5565 10.37 51.9065H7.15C17.95 32.1065 -0.0900002 27.7465 10.32 7.73649C10.56 7.27649 9.91 6.86649 9.6 7.28649C-4.61 26.6565 15.39 33.0865 1.75 54.3865H20.06C33.8 32.4365 13.83 28.5565 24.66 7.73649Z" fill="#ED3437"/>
<path d="M31.72 0.646484H3.62L0.1 2.87648L0 2.94648H28.11L31.72 0.646484Z" fill="#9B9E9F"/>
<path d="M28.67 4.0565V57.8465L32.46 55.4565V1.6665L28.67 4.0565Z" fill="#9B9E9F"/>
</svg>
