<svg width="16" height="17" viewBox="0 0 16 17" fill="none" xmlns="http://www.w3.org/2000/svg">
<g clip-path="url(#clip0_5289_8563)">
<path d="M8.00065 14.7904C11.6825 14.7904 14.6673 11.8056 14.6673 8.1237C14.6673 4.4418 11.6825 1.45703 8.00065 1.45703C4.31875 1.45703 1.33398 4.4418 1.33398 8.1237C1.33398 11.8056 4.31875 14.7904 8.00065 14.7904Z" stroke="black" stroke-width="1.33333" stroke-linecap="round" stroke-linejoin="round"/>
<path d="M6.06055 6.12343C6.21728 5.67787 6.52665 5.30216 6.93385 5.06285C7.34105 4.82353 7.81981 4.73605 8.28533 4.8159C8.75085 4.89575 9.17309 5.13778 9.47727 5.49911C9.78144 5.86045 9.94792 6.31777 9.94721 6.79009C9.94721 8.12343 7.94721 8.79009 7.94721 8.79009" stroke="black" stroke-width="1.33333" stroke-linecap="round" stroke-linejoin="round"/>
<path d="M8 11.457H8.00667" stroke="black" stroke-width="1.33333" stroke-linecap="round" stroke-linejoin="round"/>
</g>
<defs>
<clipPath id="clip0_5289_8563">
<rect width="16" height="16" fill="white" transform="translate(0 0.123047)"/>
</clipPath>
</defs>
</svg>
