<svg width="23" height="7" viewBox="0 0 23 7" fill="none" xmlns="http://www.w3.org/2000/svg">
<path d="M5.73598 7H4.2565V3.9788H1.48427V7H0V0H1.48427V2.7435H4.2565V0H5.73598V7Z" fill="#008586"/>
<path d="M7.50752 7V0H8.99179V7H7.50752Z" fill="#008586"/>
<path d="M16.5616 3.43297C16.5616 4.58527 16.2328 5.46785 15.5752 6.08071C14.9209 6.69357 13.9745 7 12.736 7H10.7538V0H12.9514C14.0942 0 14.9815 0.301642 15.6135 0.904925C16.2456 1.50821 16.5616 2.35089 16.5616 3.43297ZM15.0198 3.47127C15.0198 1.96785 14.3559 1.21614 13.028 1.21614H12.238V5.77428H12.8748C14.3048 5.77428 15.0198 5.00661 15.0198 3.47127Z" fill="#008586"/>
<path d="M22.0438 7H18.0123V0H22.0438V1.21614H19.4966V2.75308H21.8666V3.96922H19.4966V5.77428H22.0438V7Z" fill="#008586"/>
</svg>
