<svg width="201" height="200" viewBox="0 0 201 200" fill="none" xmlns="http://www.w3.org/2000/svg">
<g clip-path="url(#clip0_2176_3799)">
<mask id="mask0_2176_3799" style="mask-type:luminance" maskUnits="userSpaceOnUse" x="0" y="0" width="201" height="200">
<path d="M200.5 0H0.5V200H200.5V0Z" fill="white"/>
</mask>
<g mask="url(#mask0_2176_3799)">
<path d="M100.5 184C146.892 184 184.5 146.392 184.5 100C184.5 53.608 146.892 16 100.5 16C54.108 16 16.5 53.608 16.5 100C16.5 146.392 54.108 184 100.5 184Z" fill="#5B6B7C" fill-opacity="0.1"/>
<path d="M159.878 57.1643V142.751C159.878 145.4 157.727 147.551 155.078 147.551H46.468C43.8188 147.551 41.668 145.4 41.668 142.751V57.1643C41.668 54.5151 43.8188 52.3643 46.468 52.3643H155.078C157.727 52.3643 159.878 54.5151 159.878 57.1643Z" fill="#5E6E7F" fill-opacity="0.2"/>
<path d="M159.878 52.3652H41.668V72.7628H159.878V52.3652Z" fill="white" fill-opacity="0.3"/>
<path d="M69.0459 59.3408C70.7248 59.3408 72.0879 60.7085 72.0879 62.393C72.0879 64.0775 70.7248 65.4452 69.0459 65.4452C67.367 65.4452 66.0039 64.0775 66.0039 62.393C66.0039 60.7085 67.367 59.3408 69.0459 59.3408Z" fill="#5E6E7F" fill-opacity="0.2"/>
<path d="M60.3545 59.3413C62.0334 59.3413 63.3965 60.709 63.3965 62.3935C63.3965 64.078 62.0334 65.4457 60.3545 65.4457C58.6756 65.4457 57.3125 64.078 57.3125 62.3935C57.3125 60.709 58.6756 59.3413 60.3545 59.3413Z" fill="#5E6E7F" fill-opacity="0.2"/>
<path d="M51.6631 59.3413C53.342 59.3413 54.7051 60.709 54.7051 62.3935C54.7051 64.078 53.342 65.4457 51.6631 65.4457C49.9842 65.4457 48.6211 64.078 48.6211 62.3935C48.6211 60.709 49.9842 59.3413 51.6631 59.3413Z" fill="#5E6E7F" fill-opacity="0.2"/>
<mask id="mask1_2176_3799" style="mask-type:luminance" maskUnits="userSpaceOnUse" x="41" y="48" width="119" height="96">
<path d="M41.3008 48H159.701V143.2H41.3008V48Z" fill="white"/>
</mask>
<g mask="url(#mask1_2176_3799)">
<mask id="mask2_2176_3799" style="mask-type:alpha" maskUnits="userSpaceOnUse" x="41" y="48" width="119" height="96">
<path d="M159.511 52.801V138.385C159.511 141.037 157.359 143.185 154.711 143.185H46.1027C43.4547 143.185 41.3027 141.037 41.3027 138.385V52.801C41.3027 50.149 43.4547 48.001 46.1027 48.001H154.711C157.359 48.001 159.511 50.149 159.511 52.801Z" fill="#FF0000"/>
<path d="M159.511 52.8V138.386C159.511 141.036 157.36 143.186 154.711 143.186H46.1018C43.4526 143.186 41.3018 141.036 41.3018 138.386V52.8C41.3018 50.1509 43.4526 48 46.1018 48H154.711C157.36 48 159.511 50.1509 159.511 52.8Z" fill="#D0C6FF"/>
</mask>
<g mask="url(#mask2_2176_3799)">
<path d="M97.6225 70.6157C117.528 70.6157 133.69 86.8317 133.69 106.804C133.69 126.777 117.528 142.993 97.6225 142.993C77.7167 142.993 61.5547 126.777 61.5547 106.804C61.5547 86.8317 77.7167 70.6157 97.6225 70.6157Z" stroke="#5E6E7F" stroke-opacity="0.2" stroke-width="6.12"/>
</g>
<path d="M132.058 146.734L120.478 135.24" stroke="#5E6E7F" stroke-opacity="0.2" stroke-width="6.12"/>
</g>
<mask id="mask3_2176_3799" style="mask-type:luminance" maskUnits="userSpaceOnUse" x="0" y="0" width="201" height="200">
<path d="M0.492188 0H200.492V200H0.492188V0Z" fill="white"/>
</mask>
<g mask="url(#mask3_2176_3799)">
<path d="M96.9084 79.9206C113.521 80.4795 126.554 94.4663 125.993 111.134C125.432 127.802 111.489 140.881 94.8762 140.322C78.2637 139.763 65.231 125.776 65.7918 109.109C66.3526 92.4408 80.2959 79.3616 96.9084 79.9206ZM101.72 75.7024C118.332 76.2613 131.365 90.2481 130.804 106.916C130.243 123.584 116.3 136.663 99.6876 136.104C83.0751 135.545 70.0423 121.558 70.6031 104.89C71.1639 88.2226 85.1073 75.1434 101.72 75.7024Z" fill="#5E6E7F" fill-opacity="0.2"/>
<path d="M134.585 135.727L127.512 143.186L159.092 173.136L166.166 165.677L134.585 135.727Z" fill="#474747"/>
<path d="M131.158 139.693L125.074 134.024" stroke="#5E6E7F" stroke-width="9.6168"/>
<path d="M100.306 70.3677C120.212 70.3677 136.374 86.5837 136.374 106.556C136.374 126.528 120.212 142.744 100.306 142.744C80.4003 142.744 64.2383 126.528 64.2383 106.556C64.2383 86.5837 80.4003 70.3677 100.306 70.3677Z" stroke="#5E6E7F" stroke-width="6.12"/>
</g>
<g opacity="0.960205">
<path d="M97.0066 117.924C96.2935 118.608 95.937 119.482 95.937 120.548C95.937 121.597 96.2863 122.464 96.9838 123.148C97.6968 123.832 98.6319 124.174 99.7891 124.174C100.946 124.174 101.874 123.832 102.572 123.148C103.285 122.464 103.641 121.597 103.641 120.548C103.641 119.482 103.276 118.608 102.548 117.924C101.835 117.224 100.915 116.873 99.7891 116.873C98.6631 116.873 97.7352 117.224 97.0066 117.924ZM97.4351 107.903C96.8961 109.223 96.6261 110.996 96.6261 113.223H102.713L102.809 111.768C102.983 110.21 103.672 108.849 104.878 107.688L106.804 105.851C108.311 104.388 109.363 103.061 109.966 101.867C110.569 100.659 110.87 99.3777 110.87 98.0261C110.87 95.0515 109.942 92.7528 108.087 91.131C106.233 89.4925 103.626 88.6738 100.264 88.6738C96.9358 88.6738 94.3045 89.5333 92.3707 91.2511C90.4524 92.9688 89.4765 95.3456 89.4453 98.3838H96.3416C96.3728 97.1114 96.7377 96.1175 97.4351 95.402C98.1482 94.671 99.0917 94.3049 100.264 94.3049C102.737 94.3049 103.974 95.6481 103.974 98.3358C103.974 99.2265 103.736 100.078 103.261 100.889C102.785 101.684 101.826 102.727 100.383 104.015C98.956 105.287 97.9741 106.582 97.4351 107.903Z" fill="white"/>
</g>
</g>
</g>
<defs>
<clipPath id="clip0_2176_3799">
<rect width="200" height="200" fill="white" transform="translate(0.5)"/>
</clipPath>
</defs>
</svg>
