<svg width="256" height="58" viewBox="0 0 256 58" fill="none" xmlns="http://www.w3.org/2000/svg">
<g clip-path="url(#clip0_88_3365)">
<path d="M243.66 18.79H38.76V22.41H243.66V18.79Z" fill="#ED3437"/>
<path d="M243.66 39.4199H38.76V43.0399H243.66V39.4199Z" fill="#ED3437"/>
<path d="M27.4 3.54004H0V57.28H27.4V3.54004Z" fill="#4A4D4E"/>
<path d="M14.17 38.8901C14.17 43.4801 12.59 48.1501 9.21002 53.5601H5.65002C8.99002 48.2701 10.55 43.4901 10.54 38.5401C10.54 35.2801 9.87002 32.3201 9.22002 29.4601C8.58002 26.6201 7.97002 23.9501 7.97002 21.0101C7.97002 16.2501 9.67002 11.7101 13.33 6.73009C13.42 6.60009 13.54 6.62009 13.6 6.64009C13.69 6.67009 13.79 6.76009 13.79 6.88009C13.79 6.92009 13.78 6.96009 13.76 7.00009C11.48 11.3801 10.37 15.4001 10.37 19.2901C10.37 22.9601 11.34 26.1401 12.29 29.2101C13.22 32.2201 14.17 35.3401 14.17 38.8801" fill="white"/>
<path d="M5.94997 53.39C9.18997 48.18 10.71 43.45 10.71 38.54C10.71 35.26 10.04 32.29 9.38997 29.43C8.74997 26.6 8.13997 23.94 8.13997 21.02C8.13997 16.3 9.82997 11.79 13.47 6.84001C13.5 6.80001 13.52 6.80001 13.55 6.81001C13.58 6.82001 13.62 6.85001 13.62 6.88001C13.62 6.89001 13.62 6.91001 13.61 6.93001C11.32 11.34 10.2 15.38 10.2 19.3C10.2 23 11.18 26.19 12.13 29.27C13.05 32.27 14 35.38 14 38.89C14 43.42 12.45 48.04 9.11997 53.39H5.95997M5.33997 53.74H9.30997C13.12 47.65 14.34 42.95 14.34 38.9C14.34 31.74 10.54 26.58 10.54 19.31C10.54 15.86 11.39 11.94 13.91 7.10001C13.95 7.03001 13.96 6.96001 13.96 6.89001C13.96 6.53001 13.45 6.29001 13.19 6.65001C9.02997 12.32 7.79997 16.88 7.79997 21.03C7.79997 27.03 10.37 32.17 10.37 38.55C10.37 42.84 9.20997 47.69 5.33997 53.74Z" fill="#ED3437"/>
<path d="M21.3399 38.8901C21.3399 43.4801 19.7599 48.1501 16.3799 53.5601H12.8199C16.1599 48.2701 17.7199 43.4901 17.7199 38.5401C17.7199 35.2801 17.0499 32.3201 16.3999 29.4601C15.7599 26.6201 15.1499 23.9501 15.1499 21.0101C15.1499 16.2501 16.8499 11.7101 20.5099 6.73009C20.5999 6.60009 20.7199 6.62009 20.7799 6.64009C20.8699 6.67009 20.9699 6.76009 20.9699 6.88009C20.9699 6.92009 20.9699 6.96009 20.9399 7.00009C18.6599 11.3801 17.5499 15.4001 17.5499 19.2901C17.5499 22.9601 18.5199 26.1401 19.4699 29.2101C20.3999 32.2201 21.3499 35.3401 21.3499 38.8801" fill="white"/>
<path d="M13.13 53.39C16.37 48.18 17.89 43.45 17.89 38.54C17.89 35.26 17.22 32.29 16.57 29.43C15.93 26.6 15.32 23.94 15.32 21.02C15.32 16.3 17.01 11.79 20.65 6.84001C20.68 6.80001 20.7 6.80001 20.73 6.81001C20.76 6.82001 20.8 6.85001 20.8 6.88001C20.8 6.89001 20.8 6.91001 20.79 6.93001C18.5 11.34 17.38 15.38 17.38 19.3C17.38 23 18.36 26.19 19.31 29.27C20.23 32.27 21.18 35.38 21.18 38.89C21.18 43.42 19.63 48.04 16.3 53.39H13.14M12.51 53.74H16.48C20.29 47.65 21.51 42.95 21.51 38.9C21.51 31.74 17.71 26.58 17.71 19.31C17.71 15.86 18.56 11.94 21.08 7.10001C21.12 7.03001 21.13 6.96001 21.13 6.89001C21.13 6.53001 20.62 6.29001 20.36 6.65001C16.2 12.32 14.97 16.88 14.97 21.03C14.97 27.03 17.54 32.17 17.54 38.55C17.54 42.84 16.38 47.69 12.51 53.74Z" fill="#ED3437"/>
<path d="M24.66 7.08988C24.9 6.62988 24.25 6.21988 23.94 6.63988C10.29 25.2399 28.18 31.9099 17.55 51.2599H14.33C25.11 31.4599 7.07 27.0999 17.48 7.08988C17.72 6.62988 17.07 6.21988 16.76 6.63988C3.11 25.2399 21 31.9099 10.37 51.2599H7.15C17.95 31.4599 -0.0900002 27.0999 10.32 7.08988C10.56 6.62988 9.91 6.21988 9.6 6.63988C-4.61 26.0099 15.39 32.4399 1.75 53.7399H20.06C33.8 31.7899 13.83 27.9099 24.66 7.08988Z" fill="#ED3437"/>
<path d="M244.89 18.8099V22.3899L248.69 19.9899V16.4099L244.89 18.8099Z" fill="#9B9E9F"/>
<path d="M247.97 15.3201L42.11 15.4201L38.7 17.5801H244.4L247.97 15.3201Z" fill="#9B9E9F"/>
<path d="M31.72 0H3.62L0.1 2.23L0 2.3H28.11L31.72 0Z" fill="#9B9E9F"/>
<path d="M252.15 16.9299C252.15 15.9199 252.97 15.1699 253.94 15.1699C254.91 15.1699 255.72 15.9199 255.72 16.9299C255.72 17.9399 254.9 18.6999 253.94 18.6999C252.98 18.6999 252.15 17.9499 252.15 16.9299ZM253.95 18.3999C254.75 18.3999 255.38 17.7799 255.38 16.9299C255.38 16.0799 254.75 15.4599 253.95 15.4599C253.15 15.4599 252.51 16.0899 252.51 16.9299C252.51 17.7699 253.14 18.3999 253.95 18.3999ZM253.57 17.9499H253.26V15.9199H254.03C254.51 15.9199 254.75 16.0999 254.75 16.4999C254.75 16.8599 254.52 17.0199 254.22 17.0599L254.8 17.9599H254.45L253.91 17.0799H253.55V17.9599L253.57 17.9499ZM253.94 16.8099C254.2 16.8099 254.43 16.7899 254.43 16.4799C254.43 16.2299 254.2 16.1799 253.99 16.1799H253.57V16.8099H253.94Z" fill="#4A4D4E"/>
<path d="M244.89 26.0299V35.6699L248.69 33.2799V23.6299L244.89 26.0299Z" fill="#9B9E9F"/>
<path d="M244.89 39.4501V43.03L248.69 40.6301V37.05L244.89 39.4501Z" fill="#9B9E9F"/>
<path d="M28.67 3.41002V57.2L32.46 54.81V1.02002L28.67 3.41002Z" fill="#9B9E9F"/>
<path d="M38.76 35.7V26.02H45.67V29.54H58.62V26.02H65.53V35.7H58.62V31.67H45.67V35.7H38.76Z" fill="#4A4D4E"/>
<path d="M79.8301 25.9399H86.5201L99.4101 35.6999H91.2701L88.8001 33.6899H77.1701L74.6601 35.6999H66.9301L79.8301 25.9399ZM79.9501 31.3899H86.1201L83.0801 28.8499L79.9501 31.3899Z" fill="#4A4D4E"/>
<path d="M194.43 25.9399H201.12L214.01 35.6999H205.87L203.4 33.6899H191.77L189.26 35.6999H181.53L194.43 25.9399ZM194.56 31.3899H200.73L197.69 28.8499L194.56 31.3899Z" fill="#4A4D4E"/>
<path d="M100.7 26.02H107.66V33.58H121.55V35.7H100.7V26.02Z" fill="#4A4D4E"/>
<path d="M149.5 30.5701C148.21 30.2901 146.24 30.0601 143.67 29.8901L137.8 29.5001C135.55 29.3501 134.06 29.2201 133.38 29.1201C132.17 28.9401 132.03 28.7001 132.03 28.7001C132.03 28.7001 132.13 28.4101 133.41 28.1801C134.48 27.9801 135.95 27.8801 137.77 27.8801C139.41 27.8801 140.79 27.9601 141.89 28.1101C143.95 28.4001 144.27 28.8601 144.31 29.0501L144.37 29.3101H151.72L151.67 28.9401C151.53 27.7801 150.15 26.9501 147.45 26.4001C144.92 25.8801 141.83 25.6101 138.25 25.6101C133.97 25.6101 130.67 25.8901 128.45 26.4501C126.06 27.0501 124.89 27.8301 124.89 28.8401C124.89 29.9501 126.08 30.7101 128.54 31.1801C129.88 31.4401 132.36 31.6801 135.92 31.9001L139.54 32.1201C141.64 32.2401 143.19 32.3901 144.15 32.5501C145.19 32.7301 145.33 32.9401 145.34 32.9401C145.34 32.9601 145.27 33.4401 142.65 33.6901C141.62 33.7901 140.25 33.8401 138.58 33.8401C135.82 33.8401 133.85 33.6501 132.73 33.2801C132.19 33.1001 131.82 32.8301 131.65 32.4901L131.56 32.3101H124.36V32.6401C124.36 33.8001 125.68 34.6501 128.4 35.2401C130.94 35.8001 134.45 36.0801 138.86 36.0801C143.27 36.0801 146.57 35.7901 148.95 35.2301C151.54 34.6101 152.75 33.8401 152.75 32.7901C152.75 31.7401 151.69 31.0501 149.5 30.5701Z" fill="#4A4D4E"/>
<path d="M180.89 31.88C178.85 32.38 175.94 32.64 172.16 32.64H164.92V35.59H157.7V26.03H172.64C176.08 26.03 178.83 26.3 180.88 26.83C182.93 27.36 183.95 28.19 183.95 29.3C183.95 30.52 182.93 31.38 180.89 31.89M175.53 28.54C174.59 28.38 173.28 28.29 171.59 28.29H164.92V30.49H171.59C173.28 30.49 174.59 30.4 175.53 30.22C176.47 30.04 176.93 29.76 176.93 29.37C176.93 28.98 176.46 28.71 175.53 28.54Z" fill="#4A4D4E"/>
<path d="M215 26.02H223.41L236.8 32.49V26.02H243.69V35.7H235.64L221.89 29.08V35.7H215V26.02Z" fill="#4A4D4E"/>
</g>
<defs>
<clipPath id="clip0_88_3365">
<rect width="255.73" height="57.28" fill="white"/>
</clipPath>
</defs>
</svg>
