<svg width="16" height="15" viewBox="0 0 16 15" fill="none" xmlns="http://www.w3.org/2000/svg">
<path fill-rule="evenodd" clip-rule="evenodd" d="M-0.000976562 2.1453C-0.000976562 0.961835 0.958417 0.00244141 2.14188 0.00244141H5.31221C6.2955 0.00244141 7.1526 0.671649 7.3911 1.62558L7.6996 2.85959H8.92761H13.5705C14.754 2.85959 15.7133 3.81898 15.7133 5.00245V6.43102C15.7133 6.82552 15.3935 7.14531 14.999 7.14531C14.6045 7.14531 14.2848 6.82552 14.2848 6.43102V5.00245C14.2848 4.60796 13.965 4.28816 13.5705 4.28816H8.92761H7.6996H2.14188C1.7474 4.28816 1.4276 4.60796 1.4276 5.00245V5.71673V12.1453C1.4276 12.5398 1.7474 12.8596 2.14188 12.8596H5.71332C6.1078 12.8596 6.4276 13.1794 6.4276 13.5739C6.4276 13.9684 6.1078 14.2882 5.71332 14.2882H2.14188C0.958417 14.2882 -0.000976562 13.3288 -0.000976562 12.1453V5.71673V5.00245V2.1453ZM1.4276 2.98152C1.65101 2.90255 1.89143 2.85959 2.14188 2.85959H6.22705L6.00517 1.97206C5.92567 1.65409 5.63997 1.43101 5.31221 1.43101H2.14188C1.7474 1.43101 1.4276 1.75081 1.4276 2.1453V2.98152ZM13.693 11.972C14.067 11.4075 14.2848 10.7304 14.2848 10.0025C14.2848 8.03002 12.6858 6.43102 10.7133 6.43102C8.74089 6.43102 7.14189 8.03002 7.14189 10.0025C7.14189 11.9749 8.74089 13.5739 10.7133 13.5739C11.4413 13.5739 12.1183 13.3561 12.6829 12.9822L14.494 14.7932C14.7729 15.0722 15.2252 15.0722 15.5041 14.7932C15.783 14.5143 15.783 14.062 15.5041 13.7831L13.693 11.972ZM8.57046 10.0025C8.57046 8.81895 9.52982 7.85959 10.7133 7.85959C11.8968 7.85959 12.8562 8.81895 12.8562 10.0025C12.8562 11.186 11.8968 12.1453 10.7133 12.1453C9.52982 12.1453 8.57046 11.186 8.57046 10.0025Z" fill="#B2B7C7"/>
</svg>
