<svg width="288" height="120" viewBox="0 0 288 120" fill="none" xmlns="http://www.w3.org/2000/svg">
<path d="M93.35 70.4821H83.503V10.5781C83.503 8.92113 82.16 7.57812 80.503 7.57812H55.72C54.834 7.57812 53.993 7.97013 53.423 8.64713L1.62101 70.2231C1.16602 70.7641 0.916016 71.4481 0.916016 72.1551V95.5441C0.916016 97.2011 2.25901 98.5441 3.91602 98.5441H52.72V114.672C52.72 116.33 54.063 117.672 55.72 117.672H80.503C82.16 117.672 83.503 116.33 83.503 114.672V98.5441H93.35C95.007 98.5441 96.35 97.2011 96.35 95.5441V73.4821C96.35 71.8251 95.007 70.4821 93.35 70.4821ZM52.72 70.4821H34.834L52.72 49.4351V70.4821Z" fill="#2B333B"/>
<path d="M284.082 70.4821H274.237V10.5781C274.237 8.92113 272.894 7.57812 271.237 7.57812H246.453C245.567 7.57812 244.726 7.97013 244.156 8.64713L192.354 70.2231C191.899 70.7641 191.65 71.4481 191.65 72.1551V95.5441C191.65 97.2011 192.993 98.5441 194.65 98.5441H243.453V114.672C243.453 116.33 244.796 117.672 246.453 117.672H271.237C272.894 117.672 274.237 116.33 274.237 114.672V98.5441H284.082C285.739 98.5441 287.082 97.2011 287.082 95.5441V73.4821C287.082 71.8251 285.739 70.4821 284.082 70.4821ZM243.453 70.4821H225.567L243.453 49.4351V70.4821Z" fill="#2B333B"/>
<path d="M185.906 38.1411C184.874 33.9121 183.479 30.1411 181.762 26.9311C180.019 23.6711 177.614 20.5351 174.614 17.6121C171.543 14.6161 167.56 12.1651 162.773 10.3251C158.027 8.50212 151.958 7.57812 144.732 7.57812C129.578 7.57812 118.06 11.8341 110.495 20.2291C102.905 28.6511 99.2148 42.6671 99.2148 63.0781C99.2148 71.1631 99.9298 78.6641 101.338 85.3731C102.781 92.2491 104.862 97.7981 107.508 101.838C111.177 107.569 115.956 111.985 121.711 114.963C127.422 117.919 134.909 119.418 143.965 119.418C160.265 119.418 172.002 114.658 178.853 105.271C185.489 96.1771 188.855 81.8641 188.855 62.7301C188.855 54.2401 187.861 45.9611 185.906 38.1411ZM153.189 83.9481C152.327 87.7201 151.038 90.4451 149.363 92.0481C147.809 93.5321 146.033 94.2541 143.93 94.2541C141.921 94.2541 138.976 93.6871 136.612 88.7931C134.518 84.4541 133.456 75.9091 133.456 63.3931C133.456 50.9811 134.427 42.4721 136.344 38.1041C137.949 34.4471 140.315 32.7421 143.79 32.7421C147.233 32.7421 149.672 34.4401 151.467 38.0841C152.903 40.9981 154.614 47.8881 154.614 64.1601C154.614 73.1571 154.135 79.8141 153.189 83.9481Z" fill="#2B333B"/>
<path d="M187.447 45.6108C187.025 43.0828 186.519 40.5888 185.908 38.1428C184.876 33.9138 183.48 30.1428 181.763 26.9328C180.02 23.6728 177.615 20.5368 174.615 17.6128C174.228 17.2358 173.827 16.8678 173.411 16.5078C169.121 19.4538 166.303 24.3898 166.303 29.9868C166.303 39.0128 173.621 46.3298 182.646 46.3298C184.317 46.3298 185.929 46.0768 187.447 45.6108Z" fill="#D6DDEC"/>
<path d="M202.294 20.4263C202.294 31.2783 193.497 40.0753 182.645 40.0753C171.793 40.0753 162.994 31.2783 162.994 20.4263C162.994 9.57434 171.793 0.777344 182.645 0.777344C193.497 0.777344 202.294 9.57434 202.294 20.4263Z" fill="#FA303B"/>
<path d="M182.646 24.3208C181.402 24.3208 180.393 23.3118 180.393 22.0678V10.0528C180.393 8.80878 181.402 7.80078 182.646 7.80078C183.89 7.80078 184.899 8.80878 184.899 10.0528V22.0678C184.899 23.3118 183.89 24.3208 182.646 24.3208Z" fill="white"/>
<path d="M182.646 31.8419C181.402 31.8419 180.393 30.8319 180.393 29.5879C180.393 28.3439 181.402 27.3359 182.646 27.3359C183.89 27.3359 184.899 28.3439 184.899 29.5879C184.899 30.8319 183.89 31.8419 182.646 31.8419Z" fill="white"/>
</svg>
