<svg width="37" height="36" viewBox="0 0 37 36" fill="none" xmlns="http://www.w3.org/2000/svg">
<rect x="0.828125" y="0.117188" width="35.6284" height="35.6284" rx="4" fill="#2B333B"/>
<g clip-path="url(#clip0_7519_10285)">
<path d="M22.8278 10.3984C23.0476 10.1786 23.3086 10.0042 23.5958 9.88528C23.883 9.76631 24.1908 9.70508 24.5017 9.70508C24.8126 9.70508 25.1204 9.76631 25.4076 9.88528C25.6948 10.0042 25.9558 10.1786 26.1756 10.3984C26.3954 10.6183 26.5698 10.8792 26.6888 11.1664C26.8077 11.4536 26.869 11.7615 26.869 12.0723C26.869 12.3832 26.8077 12.6911 26.6888 12.9783C26.5698 13.2655 26.3954 13.5264 26.1756 13.7463L14.8767 25.0452L10.2734 26.3006L11.5289 21.6973L22.8278 10.3984Z" stroke="white" stroke-width="1.75" stroke-linecap="round" stroke-linejoin="round"/>
</g>
<defs>
<clipPath id="clip0_7519_10285">
<rect width="20.087" height="20.0869" fill="white" transform="translate(8.59961 7.8877)"/>
</clipPath>
</defs>
</svg>
