<svg width="37" height="36" viewBox="0 0 37 36" fill="none" xmlns="http://www.w3.org/2000/svg">
<rect x="0.828125" y="0.00195312" width="35.6284" height="35.6284" rx="4" fill="#2B333B"/>
<g clip-path="url(#clip0_7519_10290)">
<path d="M8.42383 10.3086V16.0771H14.1924" stroke="white" stroke-width="1.92285" stroke-linecap="round" stroke-linejoin="round"/>
<path d="M10.837 20.8846C11.4604 22.654 12.6419 24.1728 14.2036 25.2123C15.7653 26.2518 17.6224 26.7556 19.4953 26.6478C21.3682 26.54 23.1554 25.8265 24.5874 24.6147C26.0195 23.4029 27.019 21.7585 27.4353 19.9293C27.8515 18.1001 27.662 16.1851 26.8953 14.4729C26.1286 12.7608 24.8263 11.3442 23.1844 10.4365C21.5426 9.52893 19.6503 9.17948 17.7926 9.44085C15.9349 9.70221 14.2125 10.5602 12.8848 11.8856L8.42383 16.0775" stroke="white" stroke-width="1.75" stroke-linecap="round" stroke-linejoin="round"/>
</g>
<defs>
<clipPath id="clip0_7519_10290">
<rect width="23.0742" height="23.0742" fill="white" transform="translate(7.46289 6.46289)"/>
</clipPath>
</defs>
</svg>
