<svg width="30" height="30" viewBox="0 0 30 30" fill="none" xmlns="http://www.w3.org/2000/svg">
<g clip-path="url(#clip0_1348_4046)">
<path d="M15.0059 17.25C16.2485 17.25 17.2559 16.2426 17.2559 15C17.2559 13.7574 16.2485 12.75 15.0059 12.75C13.7632 12.75 12.7559 13.7574 12.7559 15C12.7559 16.2426 13.7632 17.25 15.0059 17.25Z" stroke="black" stroke-width="1.5" stroke-linecap="round" stroke-linejoin="round"/>
<path d="M20.5559 17.25C20.456 17.4762 20.4262 17.7271 20.4704 17.9704C20.5145 18.2137 20.6305 18.4382 20.8034 18.615L20.8484 18.66C20.9878 18.7993 21.0985 18.9647 21.1739 19.1468C21.2494 19.3289 21.2883 19.5241 21.2883 19.7213C21.2883 19.9184 21.2494 20.1136 21.1739 20.2957C21.0985 20.4778 20.9878 20.6432 20.8484 20.7825C20.7091 20.922 20.5436 21.0326 20.3615 21.1081C20.1794 21.1836 19.9842 21.2224 19.7871 21.2224C19.59 21.2224 19.3948 21.1836 19.2127 21.1081C19.0306 21.0326 18.8652 20.922 18.7259 20.7825L18.6809 20.7375C18.5041 20.5646 18.2796 20.4486 18.0363 20.4045C17.793 20.3604 17.5421 20.3902 17.3159 20.49C17.094 20.5851 16.9048 20.7429 16.7716 20.9442C16.6383 21.1454 16.5668 21.3812 16.5659 21.6225V21.75C16.5659 22.1478 16.4078 22.5294 16.1265 22.8107C15.8452 23.092 15.4637 23.25 15.0659 23.25C14.668 23.25 14.2865 23.092 14.0052 22.8107C13.7239 22.5294 13.5659 22.1478 13.5659 21.75V21.6825C13.5601 21.4343 13.4797 21.1935 13.3352 20.9915C13.1908 20.7896 12.9889 20.6357 12.7559 20.55C12.5296 20.4502 12.2787 20.4204 12.0354 20.4645C11.7921 20.5086 11.5676 20.6246 11.3909 20.7975L11.3459 20.8425C11.2065 20.982 11.0411 21.0926 10.859 21.1681C10.6769 21.2436 10.4817 21.2824 10.2846 21.2824C10.0875 21.2824 9.8923 21.2436 9.7102 21.1681C9.5281 21.0926 9.36267 20.982 9.22336 20.8425C9.08389 20.7032 8.97326 20.5378 8.89777 20.3557C8.82228 20.1736 8.78343 19.9784 8.78343 19.7812C8.78343 19.5841 8.82228 19.3889 8.89777 19.2068C8.97326 19.0247 9.08389 18.8593 9.22336 18.72L9.26836 18.675C9.44126 18.4982 9.55725 18.2737 9.60136 18.0304C9.64548 17.7871 9.6157 17.5362 9.51586 17.31C9.42079 17.0882 9.26293 16.899 9.06171 16.7657C8.86049 16.6325 8.6247 16.561 8.38336 16.56H8.25586C7.85803 16.56 7.4765 16.402 7.1952 16.1207C6.91389 15.8394 6.75586 15.4578 6.75586 15.06C6.75586 14.6622 6.91389 14.2806 7.1952 13.9993C7.4765 13.718 7.85803 13.56 8.25586 13.56H8.32336C8.57161 13.5542 8.81236 13.4738 9.01433 13.3294C9.2163 13.1849 9.37015 12.9831 9.45586 12.75C9.5557 12.5238 9.58548 12.2729 9.54136 12.0296C9.49725 11.7863 9.38126 11.5618 9.20836 11.385L9.16336 11.34C9.02389 11.2007 8.91326 11.0353 8.83777 10.8532C8.76228 10.6711 8.72343 10.4759 8.72343 10.2787C8.72343 10.0816 8.76228 9.88644 8.83777 9.70434C8.91326 9.52224 9.02389 9.35681 9.16336 9.2175C9.30267 9.07804 9.4681 8.9674 9.6502 8.89191C9.8323 8.81642 10.0275 8.77757 10.2246 8.77757C10.4217 8.77757 10.6169 8.81642 10.799 8.89191C10.9811 8.9674 11.1465 9.07804 11.2859 9.2175L11.3309 9.2625C11.5076 9.4354 11.7321 9.55139 11.9754 9.5955C12.2187 9.63962 12.4696 9.60984 12.6959 9.51H12.7559C12.9777 9.41493 13.1669 9.25707 13.3001 9.05585C13.4334 8.85463 13.5049 8.61884 13.5059 8.3775V8.25C13.5059 7.85218 13.6639 7.47064 13.9452 7.18934C14.2265 6.90804 14.608 6.75 15.0059 6.75C15.4037 6.75 15.7852 6.90804 16.0665 7.18934C16.3478 7.47064 16.5059 7.85218 16.5059 8.25V8.3175C16.5068 8.55884 16.5783 8.79463 16.7116 8.99585C16.8448 9.19707 17.034 9.35493 17.2559 9.45C17.4821 9.54984 17.733 9.57962 17.9763 9.5355C18.2196 9.49139 18.4441 9.3754 18.6209 9.2025L18.6659 9.1575C18.8052 9.01804 18.9706 8.9074 19.1527 8.83191C19.3348 8.75642 19.53 8.71757 19.7271 8.71757C19.9242 8.71757 20.1194 8.75642 20.3015 8.83191C20.4836 8.9074 20.649 9.01804 20.7884 9.1575C20.9278 9.29681 21.0385 9.46224 21.1139 9.64434C21.1894 9.82644 21.2283 10.0216 21.2283 10.2188C21.2283 10.4159 21.1894 10.6111 21.1139 10.7932C21.0385 10.9753 20.9278 11.1407 20.7884 11.28L20.7434 11.325C20.5705 11.5018 20.4545 11.7263 20.4104 11.9696C20.3662 12.2129 20.396 12.4638 20.4959 12.69V12.75C20.5909 12.9718 20.7488 13.161 20.95 13.2943C21.1512 13.4275 21.387 13.499 21.6284 13.5H21.7559C22.1537 13.5 22.5352 13.658 22.8165 13.9393C23.0978 14.2206 23.2559 14.6022 23.2559 15C23.2559 15.3978 23.0978 15.7794 22.8165 16.0607C22.5352 16.342 22.1537 16.5 21.7559 16.5H21.6884C21.447 16.501 21.2112 16.5725 21.01 16.7057C20.8088 16.839 20.6509 17.0282 20.5559 17.25Z" stroke="black" stroke-width="1.5" stroke-linecap="round" stroke-linejoin="round"/>
</g>
<defs>
<clipPath id="clip0_1348_4046">
<rect width="18" height="18" fill="white" transform="translate(6.00586 6)"/>
</clipPath>
</defs>
</svg>
