<svg width="29" height="7" viewBox="0 0 29 7" fill="none" xmlns="http://www.w3.org/2000/svg">
<path d="M4.54145 5.01861C4.54145 5.63256 4.31974 6.11628 3.87633 6.46977C3.43602 6.82326 2.82207 7 2.03447 7C1.30889 7 0.667026 6.86357 0.108887 6.5907V5.25116C0.567801 5.45581 0.955398 5.6 1.27168 5.68372C1.59106 5.76744 1.88253 5.8093 2.1461 5.8093C2.46238 5.8093 2.70424 5.74884 2.87168 5.62791C3.04222 5.50698 3.12749 5.32713 3.12749 5.08837C3.12749 4.95504 3.09028 4.83721 3.01586 4.73488C2.94145 4.62946 2.83137 4.52868 2.68563 4.43256C2.543 4.33643 2.24997 4.18295 1.80656 3.97209C1.39106 3.77674 1.07943 3.58915 0.871677 3.4093C0.663926 3.22946 0.498034 3.02016 0.374003 2.7814C0.249972 2.54264 0.187956 2.26357 0.187956 1.94419C0.187956 1.34264 0.391057 0.869768 0.797259 0.525581C1.20656 0.181395 1.7709 0.00930233 2.49028 0.00930233C2.84377 0.00930233 3.1802 0.0511628 3.49958 0.134884C3.82207 0.218605 4.1585 0.336434 4.50889 0.488372L4.04377 1.6093C3.68098 1.46047 3.3802 1.35659 3.14145 1.29767C2.90579 1.23876 2.67323 1.2093 2.44377 1.2093C2.1709 1.2093 1.9616 1.27287 1.81586 1.4C1.67013 1.52713 1.59726 1.69302 1.59726 1.89767C1.59726 2.02481 1.62672 2.13643 1.68563 2.23256C1.74455 2.32558 1.83757 2.41705 1.9647 2.50698C2.09493 2.5938 2.40036 2.75194 2.88098 2.9814C3.51664 3.28527 3.9523 3.5907 4.18796 3.89767C4.42362 4.20155 4.54145 4.57519 4.54145 5.01861Z" fill="#008586"/>
<path d="M11.3461 6.90698H9.90889V3.97209H7.21586V6.90698H5.774V0.106977H7.21586V2.77209H9.90889V0.106977H11.3461V6.90698Z" fill="#008586"/>
<path d="M19.2391 3.49767C19.2391 4.62326 18.9601 5.48837 18.4019 6.09302C17.8438 6.69767 17.0438 7 16.0019 7C14.9601 7 14.1601 6.69767 13.6019 6.09302C13.0438 5.48837 12.7647 4.62016 12.7647 3.48837C12.7647 2.35659 13.0438 1.49302 13.6019 0.897674C14.1632 0.299225 14.9663 0 16.0112 0C17.0562 0 17.8546 0.300775 18.4066 0.902326C18.9616 1.50388 19.2391 2.36899 19.2391 3.49767ZM14.2763 3.49767C14.2763 4.25736 14.4205 4.82946 14.7089 5.21395C14.9973 5.59845 15.4283 5.7907 16.0019 5.7907C17.1523 5.7907 17.7275 5.02636 17.7275 3.49767C17.7275 1.96589 17.1554 1.2 16.0112 1.2C15.4376 1.2 15.005 1.3938 14.7135 1.7814C14.4221 2.16589 14.2763 2.73798 14.2763 3.49767Z" fill="#008586"/>
<path d="M27.2717 6.90698H25.6298L24.7089 3.33488C24.6748 3.20775 24.6159 2.94574 24.5321 2.54884C24.4515 2.14884 24.405 1.88062 24.3926 1.74419C24.374 1.91163 24.3275 2.1814 24.2531 2.55349C24.1787 2.92248 24.1213 3.18605 24.081 3.34419L23.1647 6.90698H21.5275L19.7926 0.106977H21.2112L22.081 3.8186C22.2329 4.50388 22.343 5.09767 22.4112 5.6C22.4298 5.42326 22.4717 5.15039 22.5368 4.7814C22.605 4.4093 22.6686 4.12093 22.7275 3.91628L23.7182 0.106977H25.081L26.0717 3.91628C26.1151 4.08682 26.1694 4.34729 26.2345 4.69767C26.2996 5.04806 26.3492 5.34884 26.3833 5.6C26.4143 5.35814 26.4639 5.05736 26.5321 4.69767C26.6004 4.33488 26.6624 4.04186 26.7182 3.8186L27.5833 0.106977H29.0019L27.2717 6.90698Z" fill="#008586"/>
</svg>
