<svg width="24" height="24" viewBox="0 0 24 24" fill="none" xmlns="http://www.w3.org/2000/svg">
<path fill-rule="evenodd" clip-rule="evenodd" d="M12 24C18.6274 24 24 18.6274 24 12C24 5.37258 18.6274 0 12 0C5.37258 0 0 5.37258 0 12C0 18.6274 5.37258 24 12 24Z" fill="white"/>
<path fill-rule="evenodd" clip-rule="evenodd" d="M11.2597 17.0002V10.9998C11.2597 10.4475 11.7072 9.99999 12.2595 9.99999C12.8117 9.99999 13.2603 10.4475 13.2603 10.9998V17.0002C13.2603 17.5525 12.8117 18 12.2595 18C11.7072 18 11.2597 17.5525 11.2597 17.0002ZM11 6.87036C11 6.24609 11.506 5.74023 12.1301 5.74023C12.7542 5.74023 13.2603 6.24609 13.2603 6.87036C13.2603 7.49438 12.7542 8.00049 12.1301 8.00049C11.5061 8.00049 11 7.49439 11 6.87036Z" fill="#0066F6"/>
</svg>
