<svg width="24" height="24" viewBox="0 0 24 24" fill="none" xmlns="http://www.w3.org/2000/svg">
<path fill-rule="evenodd" clip-rule="evenodd" d="M12 24C18.6274 24 24 18.6274 24 12C24 5.37258 18.6274 0 12 0C5.37258 0 0 5.37258 0 12C0 18.6274 5.37258 24 12 24Z" fill="white"/>
<path fill-rule="evenodd" clip-rule="evenodd" d="M13.9492 15.3638L11.8283 13.2425L9.70739 15.3638C9.31603 15.7542 8.68316 15.7542 8.29278 15.3638C7.9024 14.9734 7.9024 14.3406 8.29278 13.9493L10.414 11.8279L8.29278 9.70635C7.9024 9.31622 7.9024 8.68316 8.29278 8.29278C8.68316 7.9024 9.31603 7.9024 9.70739 8.29278L11.8283 10.4139L13.9492 8.29278C14.3406 7.9024 14.9734 7.9024 15.3638 8.29278C15.7541 8.68316 15.7541 9.31622 15.3638 9.70635L13.2426 11.8279L15.3638 13.9493C15.7541 14.3406 15.7541 14.9734 15.3638 15.3638C15.1686 15.5591 14.9128 15.6565 14.6569 15.6565C14.4009 15.6565 14.1449 15.5591 13.9492 15.3638Z" fill="#FF6363"/>
</svg>
