<svg width="24" height="24" viewBox="0 0 24 24" fill="none" xmlns="http://www.w3.org/2000/svg">
<path fill-rule="evenodd" clip-rule="evenodd" d="M12 24C18.6274 24 24 18.6274 24 12C24 5.37258 18.6274 0 12 0C5.37258 0 0 5.37258 0 12C0 18.6274 5.37258 24 12 24Z" fill="white"/>
<path d="M11.0021 7.25203L6.06125 15.5004C5.95938 15.6768 5.90548 15.8768 5.90491 16.0805C5.90434 16.2842 5.95712 16.4845 6.058 16.6615C6.15888 16.8385 6.30434 16.986 6.47991 17.0893C6.65549 17.1926 6.85505 17.2481 7.05875 17.2504H16.9404C17.1441 17.2481 17.3437 17.1926 17.5193 17.0893C17.6948 16.986 17.8403 16.8385 17.9412 16.6615C18.042 16.4845 18.0948 16.2842 18.0943 16.0805C18.0937 15.8768 18.0398 15.6768 17.9379 15.5004L12.9971 7.25203C12.8931 7.08059 12.7467 6.93885 12.5719 6.84048C12.3972 6.74211 12.2001 6.69043 11.9996 6.69043C11.7991 6.69043 11.6019 6.74211 11.4272 6.84048C11.2525 6.93885 11.1061 7.08059 11.0021 7.25203Z" stroke="#FD9101" stroke-width="1.16667" stroke-linecap="round" stroke-linejoin="round"/>
<path d="M12 10.25V12.5833" stroke="#FD9101" stroke-width="1.16667" stroke-linecap="round" stroke-linejoin="round"/>
<path d="M12 14.9165H12.0052" stroke="#FD9101" stroke-width="1.16667" stroke-linecap="round" stroke-linejoin="round"/>
</svg>
