<svg width="33" height="33" viewBox="0 0 33 33" fill="none" xmlns="http://www.w3.org/2000/svg">
<path d="M4.25391 8.05286H6.92057H28.2539" stroke="#FF3666" stroke-width="2.66667" stroke-linecap="round" stroke-linejoin="round"/>
<path d="M25.5871 8.05282V26.7195C25.5871 27.4267 25.3061 28.105 24.806 28.6051C24.3059 29.1052 23.6277 29.3861 22.9204 29.3861H9.58708C8.87983 29.3861 8.20156 29.1052 7.70146 28.6051C7.20136 28.105 6.92041 27.4267 6.92041 26.7195V8.05282M10.9204 8.05282V5.38615C10.9204 4.6789 11.2014 4.00063 11.7015 3.50053C12.2016 3.00043 12.8798 2.71948 13.5871 2.71948H18.9204C19.6277 2.71948 20.3059 3.00043 20.806 3.50053C21.3061 4.00063 21.5871 4.6789 21.5871 5.38615V8.05282" stroke="#FF3666" stroke-width="2.66667" stroke-linecap="round" stroke-linejoin="round"/>
</svg>
